<svg xmlns="http://www.w3.org/2000/svg" id="Camada_2" width="405.79" height="135.03" viewBox="0 0 405.79 135.03"><g id="Camada_1-2"><path d="m100.91,118.19h2.02l4.33,10.74,4.44-10.74h.2l-4.51,10.99.84,2.11h-2.02l-5.3-13.09Z" fill="#fff" stroke-width="0"></path><path d="m114.18,131.48c-2.09,0-3.46-1.07-3.46-2.76,0-3.48,5.96-2.28,6.49-4.25-.16-1.3-.71-2.53-2.18-2.53s-2.07,1.21-2.03,2.71l-1.55-1.57c.91-.95,2.19-1.34,3.75-1.34,2.32,0,3.94.89,3.94,3.51v6.03h-.38c-.89,0-1.48-.59-1.5-1.46-.41,1.02-1.48,1.66-3.09,1.66Zm3.09-6.14c0-.16,0-.3-.02-.45-.87,1.41-4.66.57-4.66,3.84,0,1.53.82,2.5,2.14,2.5,1.44,0,2.53-1.16,2.53-2.43v-3.46Z" fill="#fff" stroke-width="0"></path><path d="m120.8,131.28v-7.67c0-.34-.12-.75-.32-1.02l-.05-.11h.96c.45,0,.95-.2,1.27-.54l.02-.02v1.91c.46-1.3,1.76-2.1,3.07-2.1s2.19.89,2.43,2.3c.41-1.41,1.78-2.3,3.14-2.3,1.64,0,2.5,1.27,2.5,3.5v6.05h-.36c-.91,0-1.5-.61-1.5-1.5v-4.73c0-1.64-.66-2.57-1.71-2.57-1.3,0-2,1.27-2,2.44v6.35h-.38c-.89,0-1.5-.61-1.5-1.5v-4.73c0-1.64-.64-2.57-1.69-2.57s-1.95.89-2,2.3v5c0,.89-.61,1.5-1.5,1.5h-.37Z" fill="#fff" stroke-width="0"></path><path d="m139.69,121.74c2.8,0,4.67,1.93,4.67,4.85s-1.91,4.89-4.66,4.89-4.69-2.02-4.69-4.92,1.87-4.82,4.67-4.82Zm-.04,9.54c1.7,0,2.84-1.91,2.84-4.71s-1.14-4.64-2.8-4.64-2.8,1.89-2.8,4.69,1.09,4.66,2.76,4.66Z" fill="#fff" stroke-width="0"></path><path d="m150.24,129.71c0-2.34-4.91-2.62-4.91-5.53,0-1.44,1.21-2.44,3-2.44,1.32,0,2.66.53,3.44,1.34l-1.57,1.59c-.02-1.69-.8-2.73-1.89-2.73-.8,0-1.48.57-1.48,1.41,0,2.27,4.94,2.52,4.94,5.58,0,1.59-1.3,2.55-3.16,2.55-1.3,0-2.66-.5-3.48-1.34l1.57-1.61c.03,1.75.8,2.75,1.91,2.75.89,0,1.62-.66,1.62-1.57Z" fill="#fff" stroke-width="0"></path><path d="m164.76,128.75c-.7,1.73-1.91,2.73-3.64,2.73-2.46,0-4.39-2.02-4.39-4.92s1.87-4.82,4.42-4.82c1.28,0,2.44.5,3.26,1.34l-1.57,1.59c-.03-1.77-.73-2.73-1.73-2.73-1.39,0-2.52,1.89-2.52,4.32s1.09,4.28,3.23,4.28c1.41,0,2.26-.82,2.73-1.8l.2.02Z" fill="#fff" stroke-width="0"></path><path d="m170.04,121.74c2.8,0,4.67,1.93,4.67,4.85s-1.91,4.89-4.66,4.89-4.69-2.02-4.69-4.92,1.87-4.82,4.67-4.82Zm-.04,9.54c1.7,0,2.84-1.91,2.84-4.71s-1.14-4.64-2.8-4.64-2.8,1.89-2.8,4.69,1.09,4.66,2.76,4.66Z" fill="#fff" stroke-width="0"></path><path d="m176.07,131.28v-7.67c0-.34-.12-.75-.32-1.02l-.05-.11h.96c.45,0,.95-.2,1.27-.54l.02-.02v1.91c.46-1.3,1.76-2.1,3.07-2.1s2.19.89,2.43,2.3c.41-1.41,1.78-2.3,3.14-2.3,1.64,0,2.5,1.27,2.5,3.5v6.05h-.36c-.91,0-1.5-.61-1.5-1.5v-4.73c0-1.64-.66-2.57-1.71-2.57-1.3,0-2,1.27-2,2.44v6.35h-.38c-.89,0-1.5-.61-1.5-1.5v-4.73c0-1.64-.64-2.57-1.69-2.57s-1.95.89-2,2.3v5c0,.89-.61,1.5-1.5,1.5h-.37Z" fill="#fff" stroke-width="0"></path><path d="m192.65,128.34v5.19c0,.89-.61,1.5-1.5,1.5h-.38v-11.42c0-.34-.12-.75-.32-1.02l-.05-.11h.91c.48,0,1-.21,1.34-.54v2.62c.34-1.78,1.16-2.84,2.76-2.84,2.19,0,3.78,1.94,3.78,4.85s-1.55,4.89-3.62,4.89c-1.52,0-2.53-1.07-2.93-3.14Zm2.62,2.89c1.32,0,2.05-1.75,2.05-4.39,0-2.96-.93-4.82-2.37-4.82-1.36,0-2.23,1.59-2.3,4.12v.09c-.09,3.16,1.25,4.99,2.62,4.99Z" fill="#fff" stroke-width="0"></path><path d="m200.39,131.28v-11.4c0-.34-.12-.75-.32-1.04l-.05-.09h.91c.48,0,1-.23,1.34-.55v11.58c0,.89-.61,1.5-1.5,1.5h-.38Z" fill="#fff" stroke-width="0"></path><path d="m211.54,128.75c-.7,1.73-1.91,2.73-3.64,2.73-2.46,0-4.39-2.02-4.39-4.92s1.87-4.82,4.5-4.82c1.98,0,3.28,1.18,3.64,2.96l-5.92,3.64c.46,1.32,1.43,2.19,2.89,2.19s2.26-.82,2.73-1.8l.2.02Zm-1.7-3.19c-.09-2.32-.77-3.62-1.94-3.62-1.39,0-2.52,1.89-2.52,4.32,0,.7.09,1.34.27,1.91l4.19-2.6Z" fill="#fff" stroke-width="0"></path><path d="m213.47,119.88c.46,0,1-.23,1.34-.55v2.6h1.09v.18h-1.09v6.05c0,1.53.46,2.59,1.44,2.59.57,0,1-.36,1.27-.96h.18c-.39,1.05-1.21,1.69-2.32,1.69-1.48,0-2.44-1.2-2.44-3.51v-5.85h-.7v-.18h.7v-.93c0-.34-.14-.75-.32-1.03l-.05-.09h.91Z" fill="#fff" stroke-width="0"></path><path d="m221.42,131.48c-2.09,0-3.46-1.07-3.46-2.76,0-3.48,5.96-2.28,6.49-4.25-.16-1.3-.71-2.53-2.18-2.53s-2.07,1.21-2.03,2.71l-1.55-1.57c.91-.95,2.19-1.34,3.75-1.34,2.32,0,3.94.89,3.94,3.51v6.03h-.38c-.89,0-1.48-.59-1.5-1.46-.41,1.02-1.48,1.66-3.09,1.66Zm3.09-6.14c0-.16,0-.3-.02-.45-.87,1.41-4.66.57-4.66,3.84,0,1.53.82,2.5,2.14,2.5,1.44,0,2.53-1.16,2.53-2.43v-3.46Z" fill="#fff" stroke-width="0"></path><path d="m233.25,124.79c-.12-1.43-.95-2.3-1.77-2.3s-1.5.93-1.55,2.28v5.01c0,.89-.61,1.5-1.5,1.5h-.38v-7.67c0-.34-.12-.75-.32-1.02l-.05-.11h.96c.45,0,.95-.2,1.27-.54l.02-.02v1.71c.37-1.18,1.28-1.91,2.41-1.91.93,0,1.71.53,2.18,1.39l-1.27,1.66Z" fill="#fff" stroke-width="0"></path><path d="m242.36,131.48c-2.09,0-3.46-1.07-3.46-2.76,0-3.48,5.96-2.28,6.49-4.25-.16-1.3-.71-2.53-2.18-2.53s-2.07,1.21-2.03,2.71l-1.55-1.57c.91-.95,2.19-1.34,3.75-1.34,2.32,0,3.94.89,3.94,3.51v6.03h-.38c-.89,0-1.48-.59-1.5-1.46-.41,1.02-1.48,1.66-3.09,1.66Zm3.09-6.14c0-.16,0-.3-.02-.45-.87,1.41-4.66.57-4.66,3.84,0,1.53.82,2.5,2.14,2.5,1.44,0,2.53-1.16,2.53-2.43v-3.46Z" fill="#fff" stroke-width="0"></path><path d="m253.06,131.28v-7.67c0-.34-.12-.75-.32-1.02l-.05-.11h.96c.45,0,.95-.2,1.27-.54l.02-.02v1.91c.46-1.3,1.76-2.1,3.07-2.1s2.19.89,2.43,2.3c.41-1.41,1.78-2.3,3.14-2.3,1.64,0,2.5,1.27,2.5,3.5v6.05h-.36c-.91,0-1.5-.61-1.5-1.5v-4.73c0-1.64-.66-2.57-1.71-2.57-1.3,0-2,1.27-2,2.44v6.35h-.38c-.89,0-1.5-.61-1.5-1.5v-4.73c0-1.64-.64-2.57-1.69-2.57s-1.95.89-2,2.3v5c0,.89-.61,1.5-1.5,1.5h-.37Z" fill="#fff" stroke-width="0"></path><path d="m267.76,131.28v-7.67c0-.34-.12-.75-.32-1.02l-.05-.11h.93c.46,0,.96-.2,1.29-.54l.04-.02v7.85c0,.89-.61,1.5-1.5,1.5h-.37Zm.93-13.27c.7,0,1.18.46,1.18,1.2s-.48,1.18-1.18,1.18-1.2-.48-1.2-1.18c0-.73.48-1.2,1.2-1.2Z" fill="#fff" stroke-width="0"></path><path d="m275.68,129.71c0-2.34-4.91-2.62-4.91-5.53,0-1.44,1.21-2.44,3-2.44,1.32,0,2.66.53,3.44,1.34l-1.57,1.59c-.02-1.69-.8-2.73-1.89-2.73-.8,0-1.48.57-1.48,1.41,0,2.27,4.94,2.52,4.94,5.58,0,1.59-1.3,2.55-3.16,2.55-1.3,0-2.66-.5-3.48-1.34l1.57-1.61c.04,1.75.8,2.75,1.91,2.75.89,0,1.62-.66,1.62-1.57Z" fill="#fff" stroke-width="0"></path><path d="m283.1,129.71c0-2.34-4.91-2.62-4.91-5.53,0-1.44,1.21-2.44,3-2.44,1.32,0,2.66.53,3.44,1.34l-1.57,1.59c-.02-1.69-.8-2.73-1.89-2.73-.8,0-1.48.57-1.48,1.41,0,2.27,4.94,2.52,4.94,5.58,0,1.59-1.3,2.55-3.16,2.55-1.3,0-2.66-.5-3.48-1.34l1.57-1.61c.04,1.75.8,2.75,1.91,2.75.89,0,1.62-.66,1.62-1.57Z" fill="#fff" stroke-width="0"></path><path d="m288.86,131.48c-2.09,0-3.46-1.07-3.46-2.76,0-3.48,5.96-2.28,6.49-4.25-.16-1.3-.71-2.53-2.18-2.53s-2.07,1.21-2.03,2.71l-1.55-1.57c.91-.95,2.19-1.34,3.75-1.34,2.32,0,3.94.89,3.94,3.51v6.03h-.38c-.89,0-1.48-.59-1.5-1.46-.41,1.02-1.48,1.66-3.09,1.66Zm3.09-6.14c0-.16,0-.3-.02-.45-.87,1.41-4.66.57-4.66,3.84,0,1.53.82,2.5,2.14,2.5,1.44,0,2.53-1.16,2.53-2.43v-3.46Zm-4.53-5.33c.16-.71.53-1.39,1.27-1.39.82,0,1.82.89,2.75.89.43,0,.62-.21.8-.45-.18.82-.59,1.2-1.25,1.2-1.02,0-1.91-.89-2.62-.89-.45,0-.82.38-.94.64Z" fill="#fff" stroke-width="0"></path><path d="m299.66,121.74c2.8,0,4.67,1.93,4.67,4.85s-1.91,4.89-4.66,4.89-4.69-2.02-4.69-4.92,1.87-4.82,4.67-4.82Zm-.03,9.54c1.69,0,2.84-1.91,2.84-4.71s-1.14-4.64-2.8-4.64-2.8,1.89-2.8,4.69,1.09,4.66,2.77,4.66Z" fill="#fff" stroke-width="0"></path><path d="m76.35,82.06c-.97.26-1.32.7-1.76,1.23-7.64,10.37-16.61,21.88-23.46,27.41-2.72,2.28-4.92,3.43-7.03,3.43-1.32,0-2.64-.53-4.04-1.58-1.32-1.05-2.02-2.64-2.02-4.66,0-4.57,3.43-11.6,10.19-21.53-4.92.35-12.65,1.32-20.56,1.32-12.56,0-25.39-2.46-27.5-13.97-.09-.7-.18-1.41-.18-2.11C0,50.34,54.65,14.58,84.08,13.88h1.14c7.73,0,13.18,2.55,16.87,7.29.35.53.88.88,1.41.88.44,0,.97-.26,1.41-.7,3.87-3.78,10.19-9.84,12.83-11.69.7-.53,1.49-.88,2.28-.88.88,0,1.76.44,2.64,1.58,1.41-2.72,3.34-5.97,4.83-8.87.53-1.05,1.49-1.49,2.46-1.49,1.85,0,3.95,1.58,3.95,3.51,0,.53-.09,1.05-.44,1.58-12.12,19.68-25.92,44.63-36.81,68.79,3.51-.53,11.51-2.28,15.02-2.9h.18c.62,0,.97.53.97,1.05,0,.62-.35,1.23-1.05,1.41-3.08.97-12.04,3.6-15.55,4.39-1.05.26-1.67.62-2.02,1.58-1.67,4.04-7.29,19.59-7.29,31.98,0,5.62,1.05,10.54,4.22,13.53.18.18.26.35.26.62,0,.44-.53.97-1.14.97-.18,0-.35-.09-.53-.18-5.54-3.69-7.64-10.63-7.64-18.71,0-9.05,2.64-19.42,5.71-27.94-4.31.7-7.64,1.58-11.42,2.37Zm-23.63-2.11c15.02-20.3,30.05-36.46,45.6-51.93.97-.97,1.32-1.93,1.32-2.9,0-1.32-.62-2.64-1.67-3.78-2.37-2.64-6.06-3.78-10.63-3.78C60.54,17.57,3.69,57.46,3.69,73.28c0,.26.09.53.09.79.88,6.85,15.64,8.35,28.82,8.35,6.85,0,13.18-.44,16.96-.7,1.49-.18,2.37-.7,3.16-1.76Zm5.18,4.83c-1.05.18-1.76.62-2.28,1.41-6.5,9.75-12.13,21-12.13,23.9,0,.26.09.53.18.62.18.18.35.18.53.18,3.34,0,16.17-13.35,26.27-26.97.18-.26.35-.53.35-.7,0-.09-.09-.09-.35-.09h-.44c-4.04.53-8.08,1.14-12.13,1.67Zm15.38-6.5c1.14-.18,1.67-.7,2.28-1.49,7.47-9.67,19.77-32.16,22.49-40.06.18-.62.26-1.05.26-1.32,0-.18,0-.26-.09-.26-.18,0-.53.26-1.14.88-13.35,14.15-25.48,28.47-37.16,44.11,4.39-.26,8.79-1.23,13.35-1.85Zm29.08-44.9c-5.89,15.38-15.99,32.68-23.63,43.93,4.22-.7,7.29-1.32,10.89-2.02,6.15-14.58,19.86-42.35,30.05-59.39,0-.09.09-.18.09-.18,0-.09-.09-.09-.09-.09-.7,0-4.57,2.72-12.83,10.72-3.16,3.08-3.16,3.69-4.48,7.03Z" fill="#fff" stroke-width="0"></path><path d="m130.91,54.12c.88-.7,1.85-.97,2.81-.97,2.9,0,5.8,2.46,5.8,5.27,0,.35-.09.7-.18,1.05-1.32,4.48-10.28,21.97-10.54,23.02,5.45-7.56,10.54-15.11,17.84-21.97.44-.44,1.05-.62,1.67-.62,1.93,0,4.31,1.76,4.31,3.78,0,.26,0,.53-.09.79-.7,2.37-8.08,15.81-8.08,21.44,0,.7.09,1.32.35,1.76.26.35.53.53.97.53,3.95,0,15.11-13.53,18.01-16.69.18-.26.44-.35.7-.35.53,0,1.05.44,1.05.97,0,.18-.09.35-.26.62-4.39,6.33-11.33,16.08-14.85,17.84-.97.44-2.11.7-3.16.7-4.04,0-8.17-2.81-8.26-6.85v-.09c0-5.62,7.82-18.63,7.82-18.8-5.71,2.81-18.54,23.81-20.3,26.89-.44.79-1.32,1.14-2.28,1.14-2.11,0-4.74-1.67-4.74-3.78,0-.35.09-.79.26-1.23,2.2-4.83,14.15-25.83,14.15-30.05,0-.53-.18-.79-.53-.79-.53,0-1.58.7-3.25,2.28-8.43,8.08-18.1,25.74-24.86,38.13-.44.88-1.41,1.23-2.28,1.23-1.93,0-4.22-1.41-4.22-3.16,0-.26.09-.53.18-.79,3.43-8.96,12.56-27.94,15.29-32.77.26-.53.79-.7,1.32-.7,1.41,0,3.34,1.41,3.34,2.64,0,.18-.09.44-.18.62-1.32,2.28-8.52,13.18-10.72,18.98-.18.44-.35.79-.35.97h.09s.26-.26.62-.79c5.01-8.26,15.38-24.6,22.58-30.22Z" fill="#fff" stroke-width="0"></path><path d="m196.71,60.36c.7-1.93,1.05-3.34,1.05-4.22,0-.62-.09-1.14-.35-1.49-.18-.18-.53-.26-.97-.26-1.58,0-4.48,1.05-8.87,3.16-2.9,1.41-6.85,3.08-11.69,5.1,3.87.44,6.15,1.58,6.77,3.51.62,1.85.97,3.51.97,4.92,0,1.67-.35,3.51-.97,5.53-1.14,3.6-2.81,6.94-4.92,10.02-2.11,3.08-4.22,5.27-6.24,6.5-1.58.79-3.25,1.23-4.92,1.23-1.32,0-2.72-.26-4.13-.88-3.08-1.32-4.74-3.51-5.01-6.59.09-3.51.88-7.03,2.55-10.63,1.67-3.51,3.25-6.24,4.83-8.08.44-.44,1.05-.7,1.76-.7.26,0,.53,0,.79.09.97.26,1.76.7,2.28,1.32.53.62.79,1.14.79,1.58,0,.26-.09.53-.26.79-3.78,5.1-5.97,8.96-6.59,11.6-.7,2.64-1.05,4.48-1.05,5.45,0,1.58.53,2.55,1.41,2.99.26.09.53.09.88.09,1.67,0,3.6-1.32,5.62-4.04,2.37-3.08,4.31-6.5,5.8-10.19s2.2-6.68,2.2-8.96c0-.53,0-.97-.09-1.41-.26-1.41-.97-2.11-2.28-2.11-.97,0-2.2.35-3.78,1.14-.35.18-.79.26-1.05.26-.62,0-1.14-.26-1.67-.79-.79-.79-1.14-1.49-1.23-2.11v-1.14c0-.88.44-1.58,1.41-1.93,7.56-2.46,13.09-4.39,16.61-5.89,2.28-.88,4.39-1.67,6.24-2.28.97-.26,1.85-.35,2.72-.35,1.93,0,3.51.62,4.66,1.85,1.58,1.67,2.37,3.43,2.37,5.18v.35c-.09,1.85-.88,4.22-2.28,6.94-4.39,8.35-8,16.34-10.89,23.99-.09.18-.09.35-.09.44,0,.26.09.35.18.44h.09c.09,0,.26-.18.44-.53,1.67-2.9,4.04-6.85,7.12-11.69,2.99-4.83,5.97-9.4,8.96-13.79,2.9-4.3,5.18-7.29,6.68-8.87.53-.44,1.23-.7,1.93-.7.44,0,.79.09,1.23.18,1.23.35,2.2.97,2.81,1.76.7.88,1.05,1.67,1.05,2.37,0,.44-.09.88-.26,1.32-.7,1.49-1.49,3.6-2.37,6.24-.79,2.64-1.23,5.01-1.23,7.12v.79c.09,2.37,1.41,3.78,3.78,4.04-.62.62-1.58.88-2.81.88h-.62c-1.49-.09-2.9-.79-4.13-1.93-1.32-1.14-1.93-2.99-2.02-5.45.44-3.34,1.67-6.85,3.87-10.46.44-.7.79-1.41,1.14-2.11.18-.35.26-.62.26-.88,0-.18-.09-.26-.18-.35h-.18c-.18,0-.44.09-.79.44-3.08,3.43-7.12,9.05-12.12,16.87-5.01,7.82-8.87,14.67-11.6,20.56-.44.88-1.23,1.32-2.28,1.32-1.14,0-2.11-.35-2.99-1.05-.88-.62-1.32-1.49-1.32-2.64v-.18c.44-2.64,1.67-6.59,3.6-11.77,1.93-5.18,3.78-9.58,5.62-13.35,1.76-3.78,2.99-6.59,3.78-8.52Z" fill="#fff" stroke-width="0"></path><path d="m278.57,63.72c.18-.53.7-.7,1.23-.7.79,0,1.67.53,1.67,1.32,0,.18,0,.26-.09.44-3.95,10.9-19.07,43.58-22.84,48.32-.62.79-1.76,1.14-3.08,1.14-2.81,0-6.41-1.76-6.41-4.31,0-.26,0-.44.09-.7,1.14-4.92,17.31-39.71,22.93-50.26.35-.79.62-1.23.62-1.58s-.26-.44-.79-.44h-.53c-4.04.44-13.18,1.49-15.2,1.58h-.09c-.79,0-1.32-.7-1.32-1.41,0-.53.35-1.05,1.05-1.23,1.67-.35,16.43-2.64,18.1-2.9,1.14-.18,1.85-.7,2.37-1.67l15.9-32.77c.53-.79.88-1.41.88-1.85,0-.35-.35-.53-1.32-.53h-.44c-17.92,0-46.04,5.71-58.08,15.46-1.23.97-1.76,1.85-1.76,2.55,0,2.55,7.38,3.34,16.25,3.34,9.84,0,21.61-1.05,26.71-1.76h.09c.44,0,.7.53.7.97,0,.35-.18.62-.44.7-5.54,1.76-21.61,4.57-33.3,4.57-1.49,0-2.99-.09-4.31-.18-5.45-.44-8.61-4.66-8.61-8.96,0-2.72,1.32-5.54,4.13-7.38,14.23-9.49,38.75-13.18,56.93-13.18,1.41,0,2.81,0,4.22.09.97,0,1.58-.44,2.02-1.14.88-1.41,3.08-6.59,3.78-7.82.26-.53.88-.7,1.67-.7,1.93,0,4.74,1.41,4.74,2.9,0,.26-.09.44-.18.7-1.05,1.85-2.11,3.69-3.08,5.53-.09.18-.18.44-.18.62,0,.35.26.62,1.41.79,8.79,1.32,27.76,3.87,27.76,14.5,0,1.32-.26,2.72-.88,4.22-5.01,12.74-34.53,21-48.59,23.28-3.08.53-2.72.62-3.95,2.99-6.24,12.04-17.04,36.2-21.79,48.85-.09.18-.09.35-.09.44q0,.18.09.18c.09,0,.26-.09.44-.35,7.47-12.12,16.34-31.1,21.53-43.67Zm47.53-36.73c0-4.57-6.59-8.52-24.25-10.37h-.62c-1.23,0-1.76.44-2.37,1.67l-16.52,32.68c15.02-1.76,43.75-14.32,43.75-23.99Z" fill="#fff" stroke-width="0"></path><path d="m295.96,93.59c-1.05.7-2.28,1.05-3.43,1.05-3.43,0-6.85-2.64-6.85-6.33,0-.35,0-.62.09-.97,1.14-7.73,12.65-25.04,21.97-26.8.35-.09.7-.09,1.05-.09,2.64,0,5.01,1.93,6.24,4.83,2.99.44,4.83,1.76,4.83,3.34,0,.44-.09.79-.35,1.23-1.32,2.28-6.59,12.39-6.59,16.61,0,.88.26,1.49.79,1.76.09.09.26.09.35.09,3.43,0,13.79-13.53,17.31-16.17.35-.26.62-.35.97-.35.7,0,1.23.53,1.23,1.23,0,.26-.18.62-.44.97-4.31,4.83-10.1,14.23-15.99,17.4-.7.35-1.49.53-2.28.53-3.08,0-6.33-2.37-6.85-5.18,0-.26-.09-.44-.09-.79,0-3.34,2.9-9.93,4.39-12.65.18-.35.26-.62.26-.7s-.09-.09-.09-.09c-.09,0-.26.18-.62.53-3.69,5.1-11.07,17.13-15.9,20.56Zm-3.69-7.91c-.53,1.58-.79,2.64-.79,3.34s.18.97.62.97c3.34,0,18.28-19.42,18.28-24.95,0-.97-.44-1.49-1.41-1.49-.26,0-.53,0-.88.09-4.92,1.23-12.83,13.62-15.81,22.05Z" fill="#fff" stroke-width="0"></path><path d="m334.09,65.65c1.76,0,3.87,1.49,3.87,2.9,0,.18-.09.44-.18.62-2.64,4.66-6.41,12.83-6.41,17.31,0,1.23.26,2.2.97,2.72.88.62,1.93.97,3.16.97,11.42,0,37.43-23.9,57.64-23.9,4.31,0,8.43,1.05,12.04,3.78.44.35.62.79.62,1.14,0,.7-.53,1.32-1.14,1.32-.26,0-.53-.09-.79-.35-1.67-1.85-4.13-2.64-6.94-2.64-14.85,0-42.61,21.17-57.55,23.99-.97.18-1.85.26-2.72.26-6.15,0-10.1-4.39-10.28-9.14v-.26c0-4.57,4.04-14.41,5.97-17.75.35-.7,1.05-.97,1.76-.97Zm8.61-17.31c1.67,0,4.04,1.58,4.04,3.08,0,.18-.09.44-.18.62-.79,1.49-5.54,8.08-6.85,9.31-.44.35-.88.53-1.23.53-.62,0-1.05-.44-1.05-1.23,0-.18,0-.35.09-.62.35-1.85,2.55-8.87,3.6-10.9.35-.62.88-.79,1.58-.79Z" fill="#fff" stroke-width="0"></path><path d="m22.52,74.92v-11.18c0-.49-.18-1.09-.47-1.48l-.08-.16h1.4c.65,0,1.38-.29,1.85-.78l.03-.03v2.78c.7-1.9,2.68-3.07,4.94-3.07,3.01,0,4.26,2.11,4.26,5.09v8.81h-.55c-1.3,0-2.18-.88-2.18-2.18v-6.89c0-2.37-1.12-3.74-3.09-3.74s-3.3,1.3-3.38,3.35v7.28c0,1.3-.88,2.18-2.18,2.18h-.55Z" fill="#fff" stroke-width="0"></path><path d="m43.02,61.01c4.08,0,6.81,2.81,6.81,7.07s-2.78,7.12-6.78,7.12-6.84-2.94-6.84-7.17,2.73-7.02,6.81-7.02Zm-.05,13.91c2.47,0,4.13-2.78,4.13-6.86s-1.66-6.76-4.08-6.76-4.08,2.76-4.08,6.84,1.59,6.78,4.03,6.78Z" fill="#fff" stroke-width="0"></path><path d="m231.82,75.2c-2.99,0-5.25-2.94-5.25-7.12s2.31-7.07,5.51-7.07c2.34,0,3.54,1.53,4.03,4.13v-6.84c0-.49-.18-1.09-.47-1.51l-.08-.13h1.33c.68,0,1.46-.34,1.95-.81v19.05h-.55c-1.33,0-2.18-.88-2.18-2.18v-2.11c-.57,3.01-2.08,4.57-4.29,4.57Zm4.29-7.64v-.08c-.1-3.74-1.4-6.06-3.35-6.06-2.13,0-3.46,2.7-3.46,7.02,0,3.85,1.07,6.39,2.99,6.39s3.95-2.68,3.82-7.28Z" fill="#fff" stroke-width="0"></path><path d="m247.52,61.01c4.08,0,6.81,2.81,6.81,7.07s-2.78,7.12-6.78,7.12-6.84-2.94-6.84-7.17,2.73-7.02,6.81-7.02Zm-.05,13.91c2.47,0,4.13-2.78,4.13-6.86s-1.66-6.76-4.08-6.76-4.08,2.76-4.08,6.84,1.59,6.78,4.03,6.78Z" fill="#fff" stroke-width="0"></path></g></svg>